<svg xmlns="http://www.w3.org/2000/svg" preserveAspectRatio="none" viewBox="0 0 1009.2 1009.2"><path d="M45.029 36.796l27.119-16.102 29.661 20.763.847 28.814h30.932" stroke="#000" stroke-linecap="round" stroke-width="11.4" fill="none"/><path d="M96.301 38.914L56.894 62.643l-9.746 23.305L6.47 99.507" stroke="#000" stroke-linecap="round" stroke-width="11.4" fill="none"/><path d="M98.843 43.999L67.487 62.643l7.203 26.695-29.237 21.61" stroke-linejoin="round" stroke="#000" stroke-linecap="round" stroke-width="11.4" fill="none"/><path d="M135.52 38.684a9.52 9.281 0 1 1-19.039 0 9.52 9.281 0 1 1 19.04 0z" stroke-linejoin="round" stroke="#000" stroke-linecap="round" stroke-width="4.60553"/><path d="M220.03 77.05h135.59" stroke="#000" stroke-width="11.4" fill="none"/><path d="M264.52 56.711l44.915-22.881 28.39 42.797-5.932-.847-24.576-35.593" stroke-linejoin="round" stroke="#000" stroke-linecap="round" stroke-width="11.4" fill="none"/><path d="M305.435 15.804a9.52 9.281 0 1 1-19.039 0 9.52 9.281 0 1 1 19.04 0zM515.18 31.904a9.52 9.281 0 1 1-19.039 0 9.52 9.281 0 1 1 19.04 0zM751.62 25.964a9.52 9.281 0 1 1-19.039 0 9.52 9.281 0 1 1 19.04 0zM961.37 11.564a9.52 9.281 0 1 1-19.039 0 9.52 9.281 0 1 1 19.04 0zM978.32 100.544a9.52 9.281 0 1 1-19.039 0 9.52 9.281 0 1 1 19.04 0z" stroke-linejoin="round" stroke="#000" stroke-linecap="round" stroke-width="4.60553"/><path d="M782.503 61.158a5.34 5.207 0 1 1-10.681 0 5.34 5.207 0 1 1 10.681 0z" stroke-linejoin="round" stroke="#000" stroke-linecap="round" stroke-width="2.583861"/><path d="M88.06 231.474a9.52 9.281 0 1 1-19.039 0 9.52 9.281 0 1 1 19.04 0z" stroke-linejoin="round" stroke="#000" stroke-linecap="round" stroke-width="4.60553" fill="#001800"/><path d="M253.74 241.644a9.52 9.281 0 1 1-19.039 0 9.52 9.281 0 1 1 19.04 0zM489.76 254.784a9.52 9.281 0 1 1-19.039 0 9.52 9.281 0 1 1 19.04 0zM704.59 227.244a9.52 9.281 0 1 1-19.039 0 9.52 9.281 0 1 1 19.04 0zM927.89 225.544a9.52 9.281 0 1 1-19.039 0 9.52 9.281 0 1 1 19.04 0zM955.86 338.654a9.52 9.281 0 1 1-19.039 0 9.52 9.281 0 1 1 19.04 0z" stroke-linejoin="round" stroke="#000" stroke-linecap="round" stroke-width="4.60553"/><path d="M943.34 470.702a6.908 6.735 0 1 1-13.815 0 6.908 6.735 0 1 1 13.815 0zM948.43 517.312a6.908 6.735 0 1 1-13.815 0 6.908 6.735 0 1 1 13.815 0zM714.53 477.512a6.908 6.735 0 1 1-13.815 0 6.908 6.735 0 1 1 13.815 0zM733.6 510.912a6.908 6.735 0 1 1-13.815 0 6.908 6.735 0 1 1 13.815 0z" stroke-linejoin="round" stroke="#000" stroke-linecap="round" stroke-width="3.34191"/><path d="M478.28 441.856a10.39 10.13 0 1 1-20.78 0 10.39 10.13 0 1 1 20.78 0z" stroke-linejoin="round" stroke="#000" stroke-linecap="round" stroke-width="5.026599999999999"/><path d="M532.98 451.354a9.52 9.281 0 1 1-19.039 0 9.52 9.281 0 1 1 19.04 0zM297.808 482.354a9.52 9.281 0 1 1-19.039 0 9.52 9.281 0 1 1 19.04 0zM22.38 485.254a9.52 9.281 0 1 1-19.039 0 9.52 9.281 0 1 1 19.04 0z" stroke-linejoin="round" stroke="#000" stroke-linecap="round" stroke-width="4.60553"/><path d="M66.58 662.191a11.086 10.81 0 1 1-22.173 0 11.086 10.81 0 1 1 22.173 0z" stroke-linejoin="round" stroke="#000" stroke-linecap="round" stroke-width="5.36362"/><path d="M287.185 676.814a9.892 9.644 0 1 1-19.783 0 9.892 9.644 0 1 1 19.783 0zM543.537 662.014a9.892 9.644 0 1 1-19.783 0 9.892 9.644 0 1 1 19.783 0zM701.167 702.714a9.892 9.644 0 1 1-19.783 0 9.892 9.644 0 1 1 19.783 0z" stroke-linejoin="round" stroke="#000" stroke-linecap="round" stroke-width="4.78552"/><path d="M896.737 685.318a10.936 10.663 0 1 1-21.873 0 10.936 10.663 0 1 1 21.873 0zM946.737 658.618a10.936 10.663 0 1 1-21.873 0 10.936 10.663 0 1 1 21.873 0zM947.587 877.218a10.936 10.663 0 1 1-21.873 0 10.936 10.663 0 1 1 21.873 0zM754.367 884.018a10.936 10.663 0 1 1-21.873 0 10.936 10.663 0 1 1 21.873 0zM510.297 876.418a10.936 10.663 0 1 1-21.873 0 10.936 10.663 0 1 1 21.873 0zM325.552 879.818a10.936 10.663 0 1 1-21.873 0 10.936 10.663 0 1 1 21.873 0zM116.227 939.918a10.936 10.663 0 1 1-21.873 0 10.936 10.663 0 1 1 21.873 0z" stroke-linejoin="round" stroke="#000" stroke-linecap="round" stroke-width="5.291049999999999"/><path d="M275.75 76.75c1.198-.3 21.872-10.187 21.872-10.187l10.187 9.588" stroke-linejoin="round" stroke="#000" stroke-linecap="round" stroke-width="11.4" fill="none"/><path d="M288.04 78.548l32.06 27.865-.6 10.187 8.09 6.891 10.787-11.685-7.49-5.992-10.787.6z" stroke-linejoin="round" stroke="#000" stroke-linecap="round" stroke-width="2.6"/><path d="M459.12 2.444l.3 14.082 11.985-5.393-7.191 2.697-4.495-2.997.9 4.195" stroke-linejoin="round" stroke="#000" stroke-linecap="round" stroke-width="2.7" fill="green"/><path d="M484.59 52.181l19.775 18.277 49.438-53.033M526.84 48.885c16.756 22.837 24.398 48.502 29.663 74.905M506.16 118.1c10.54-10.48 21.02-21.009 35.06-28.766l-18.58-33.557" stroke-linejoin="round" stroke="#000" stroke-linecap="round" stroke-width="11.4" fill="none"/><path d="M481.29 55.477l-11.386 22.472c12.836 16.596-6.034 34.92-14.681 32.359-10.844-3.21-8.598-34.446 13.783-32.958z" stroke="#000" stroke-width="2.6"/><path d="M882.79 123.79l28.164-31.76 6.891-26.666 29.363-32.659 32.66 4.195 18.576 19.176" stroke-linejoin="round" stroke="#000" stroke-linecap="round" stroke-width="11.4" fill="none"/><path d="M962.19 83.342c-2.097-1.198-19.775-17.977-19.775-17.977l-.482-16.786 6.175-11.378-25.468 28.764 15.58 21.273 1.198 36.853M701.22 41.994l4.794 15.281 20.974-11.985-2.097 37.752-26.367 12.884 7.49 24.869" stroke-linejoin="round" stroke="#000" stroke-linecap="round" stroke-width="11.4" fill="none"/><path d="M776.12 123.79c-2.996-.899-46.441-41.647-46.441-41.647l2.244.642 1.202-24.462 9.737-8.24-15.58-4.793-21.123 11.236" stroke-linejoin="round" stroke="#000" stroke-linecap="round" stroke-width="11.4" fill="none"/><path d="M700.02 41.695L668.86 4.242c-4.304-5.173-8.759 1.56-5.693 4.494l35.056 33.558z" stroke="#000"/><path d="M51.636 336.22l44.943-44.943-6.292-19.775-26.367.899" stroke="#000" stroke-width="11.4" fill="none"/><path d="M118.15 338.02c-1.198-.3-17.977-27.266-17.977-27.266l1.498-22.172-16.18-34.756-52.733.899 45.243-.3v-1.498l8.39-.6 4.494 12.885" stroke="#000" stroke-width="11.4" fill="none"/><path d="M213.14-645.55a8.475 8.263 0 1 1-16.949 0 8.475 8.263 0 1 1 16.949 0z" transform="matrix(.73708 0 0 .75626 -117.41 743.76)" stroke-linejoin="round" stroke="#000" stroke-linecap="round" stroke-width="4.1"/><path d="M213.14-645.55a8.475 8.263 0 1 1-16.949 0 8.475 8.263 0 1 1 16.949 0z" transform="matrix(.73708 0 0 .75626 -90.448 760.84)" stroke-linejoin="round" stroke="#000" stroke-linecap="round" stroke-width="4.1"/><path d="M1 274.2h137.23M1 286.19h137.23M1 297.57h137.23" stroke="#000" stroke-width="2" fill="none"/><path d="M278.475 305.63a28.252 27.545 0 1 1-56.503 0 28.252 27.545 0 1 1 56.503 0zM354.285 305.63a28.252 27.545 0 1 1-56.503 0 28.252 27.545 0 1 1 56.503 0z" stroke-linejoin="round" stroke="#000" stroke-linecap="round" stroke-width="5.0205522" fill="none"/><path d="M247.89 295.47l17.078-14.981-.3-32.06 63.52.899-26.067 34.157 15.58 32.958" stroke-linejoin="round" stroke="#000" stroke-linecap="round" stroke-width="11.4" fill="none"/><path d="M267.36 254.73l51.235.6-20.075.299-14.382 15.88 4.195 26.067M473.8 291.58l15.281-10.786 11.985-20.674 33.558 20.674-28.464 15.281 15.88 19.176M500.17 265.51l25.468 15.58" stroke-linejoin="round" stroke="#000" stroke-linecap="round" stroke-width="11.4" fill="none"/><path d="M463.32 268.36c15.994 11.409 60.353 19.182 106.96 26.666" stroke-linejoin="round" stroke="#000" stroke-linecap="round" stroke-width="2" fill="none"/><path d="M673.65 345.81v-32.359l16.779-20.674-.3-41.348-28.464 20.974 7.79 14.382M741.36 345.81c0-1.498-7.79-32.659-7.79-32.659l-35.955-20.374 2.761-1.205.238-40.293-8.243-.149h12.135l24.57 15.281 28.163-7.79" stroke-linejoin="round" stroke="#000" stroke-linecap="round" stroke-width="11.4" fill="none"/><path d="M797.39 245.14l-37.153 12.884" stroke-linejoin="round" stroke="#000" stroke-linecap="round" stroke-width="2.2" fill="none"/><path d="M878.29 269.11l61.123-28.164 26.966 6.592 12.584 27.565" stroke-linejoin="round" stroke="#000" stroke-linecap="round" stroke-width="11.4" fill="none"/><path d="M925.33 346.71c0-2.097 2.996-35.655 2.996-35.655l11.386-32.659-14.082-24.569 8.989-4.494 32.06 52.733 35.655 2.397M52.161 441.84l-27.223 65.43 12.895 55.401" stroke-linejoin="round" stroke="#000" stroke-linecap="round" stroke-width="11.4" fill="none"/><path d="M91.801 438.97l-27.223 75.46-28.189-19.757-2.693 9.47 28.971 19.362h68.296M248.93 467.63l32.054 33.812 7.843 1.324 7.901-1.245 29.094-35.324M251.79 561.71l.955-41.073 26.745 17.193 3.366-.169.455-30.397 11.462.955.955 28.744-6.058-21.645-7.146 22.291 19.295-.03 17.788-16.465 8.597 39.163" stroke-linejoin="round" stroke="#000" stroke-linecap="round" stroke-width="11.4" fill="none"/><path d="M230.78 464.28h112.71" stroke="#000" stroke-width="3" fill="none"/><path d="M459.55 460.94l17.671 28.178 28.656-16.238 23.88 1.433 48.237 19.58" stroke-linejoin="round" stroke="#000" stroke-linecap="round" stroke-width="11.4" fill="none"/><path d="M457.64 561.24l34.864-19.581 21.492-27.7-.478-31.999h11.462l-1.432 33.431 24.835 20.059-24.357 23.402" stroke-linejoin="round" stroke="#000" stroke-linecap="round" stroke-width="11.4" fill="none"/><path d="M650.58 535.45l18.626-15.283.955-16.716 22.447-20.536 7.642 19.104 15.283-7.164" stroke-linejoin="round" stroke="#000" stroke-linecap="round" stroke-width="7.7" fill="none"/><path d="M693.09 490.07l-18.149 15.283 3.82-2.866 10.986 10.507-1.433 24.357M728.43 474.31l15.761 31.999v10.507l29.611 19.104" stroke-linejoin="round" stroke="#000" stroke-linecap="round" stroke-width="7.7" fill="none"/><path d="M800.55 475.75c-1.91 0-33.431 31.999-33.431 31.999l-20.536.955-.478-5.73 20.06-.479-22.448-45.37M876.96 531.62h28.178l-11.462-16.716 34.387-.478-3.343 4.299-24.835-.478 22.924-1.433v17.193h17.193M929.02 500.1l19.104-10.507v-9.552l6.209-10.029L980.6 494.37l-6.209-.477-19.581-16.716 18.148 16.716-14.328 12.417-.478 28.656" stroke-linejoin="round" stroke="#000" stroke-linecap="round" stroke-width="7.7" fill="none"/><path d="M1005 531.15c-3.82-.478-21.969-16.238-21.969-16.238l-1.91-20.536-11.462-7.641" stroke-linejoin="round" stroke="#000" stroke-linecap="round" stroke-width="7.7" fill="none"/><path d="M893.68 708.33l57.789-25.79 12.895 76.415 39.163 3.82" stroke-linejoin="round" stroke="#000" stroke-linecap="round" stroke-width="11.4" fill="none"/><path d="M881.26 768.03l67.341-38.207-6.209-39.163 5.254-1.433 4.776 34.387" stroke-linejoin="round" stroke="#000" stroke-linecap="round" stroke-width="11.4" fill="none"/><path d="M739.01 648.23c9.661 18.323 22.663 31.475 9.976 84.384 54.434-17.055 22.538-50.655-9.976-84.384z" stroke-linejoin="round" stroke="#000" stroke-linecap="round" stroke-width="8.617"/><path d="M731.3 741.77l-13.035 12.415-23.13-5.529-20.669-.2-7.641-13.85z" stroke="#000"/><path d="M684.49 735.08l.478-15.283 46.804 3.343-43.94.717 8.12-.717-.772 16.61-4.482.106M465.76 706.42l16.238-24.357 38.685 2.866 14.328 28.178 24.357-13.85" stroke-linejoin="round" stroke="#000" stroke-linecap="round" stroke-width="11.4" fill="none"/><path d="M444.74 769.47l37.252-17.671 6.686-28.656 19.581-30.566 10.03 1.433-17.672 28.656 17.193 18.149-.955 39.64" stroke-linejoin="round" stroke="#000" stroke-linecap="round" stroke-width="11.4" fill="none"/><path d="M320.81 654.6c11.116 30.101 18.069 60.692-2.866 94.563" stroke-linejoin="round" stroke="#000" stroke-linecap="round" stroke-width="3.5" fill="none"/><path d="M253.71 690.66l-2.388 16.716v-9.074l70.206-.478-40.595.955-1.433 33.431 30.088 44.894" stroke-linejoin="round" stroke="#000" stroke-linecap="round" stroke-width="11.4" fill="none"/><path d="M247.5 779.02l24.357-45.849v-30.088M94.883 778.71l-39.85-56.735-31.745 57.411M53.007 716.57c-6.079-4.053-22.964-20.263-22.964-20.263l12.833-7.43h60.112" stroke-linejoin="round" stroke="#000" stroke-linecap="round" stroke-width="11.4" fill="none"/><path d="M48.757 729.72l-.478-37.456h10.807l.355 34.181" stroke-linejoin="round" stroke="#000" stroke-linecap="round" stroke-width="11.4" fill="none"/><path d="M123.8 678.32l-15.889-.043-.181 11.335" stroke-linejoin="round" stroke="#000" stroke-linecap="round" stroke-width="5.43" fill="none"/><path d="M658.18 769.59c29.414-13.414 45.139-.818 66.529 1.013 20.656-4.145 41.405-7.494 63.827 3.377" stroke="#00f" fill="none"/><path d="M658.18 769.59c29.414-13.414 45.139-.818 66.529 1.013 20.656-4.145 41.405-7.494 63.827 3.377M658.86 754.06c29.414-13.414 45.139-.818 66.529 1.013 20.656-4.145 41.405-7.494 63.827 3.377" stroke-linejoin="round" stroke="#000" stroke-linecap="round" stroke-width="2" fill="none"/><path d="M658.86 761.46c29.414-13.414 45.139-.818 66.529 1.013 20.656-4.145 41.405-7.494 63.827 3.377" stroke-linejoin="round" stroke="#000" stroke-linecap="round" stroke-width="2" fill="none"/><path stroke-linejoin="round" stroke="#000" stroke-linecap="round" stroke-width="11.4" d="M219.38 447.63h9.463v32.444h-9.463zM346.45 447.63h9.463v32.444h-9.463z"/><path d="M4.91 957.84c29.414-13.414 45.139-.818 66.529 1.013 20.656-4.145 41.405-7.494 63.827 3.377" stroke="#00f" fill="none"/><path d="M4.91 957.84c29.414-13.414 45.139-.818 66.529 1.013 20.656-4.145 41.405-7.494 63.827 3.377M5.585 942.3c29.414-13.414 45.14-.818 66.53 1.013 20.655-4.145 41.404-7.494 63.826 3.377" stroke-linejoin="round" stroke="#000" stroke-linecap="round" stroke-width="2" fill="none"/><path d="M5.585 949.7c29.414-13.414 45.14-.818 66.53 1.013 20.655-4.145 41.404-7.494 63.826 3.377" stroke-linejoin="round" stroke="#000" stroke-linecap="round" stroke-width="2" fill="none"/><path d="M111.57 916.71H75.071l9.632 27.881-30.923-.507 30.198 5.239.725-4.563M246.08 924.82l15.884-25.347 35.823 2.704 14.87 27.713 26.699-12.842" stroke-linejoin="round" stroke="#000" stroke-linecap="round" stroke-width="11.4" fill="none"/><path d="M292.72 907.93l-24.671 36.837-9.125 27.037-31.768 15.208M297.11 996.13l-1.352-42.245-16.56-15.546 16.898-26.699M534.36 897.11c-1.352 1.014-17.236 18.926-17.236 18.926l-27.375-19.939-16.898 21.629 17.236 13.856.018 6.542.094-16.893-8.755-4.543 10.693-10.765 9.823 4.404-20.322 21.593-19.602 63.198 15.884-51.708 71.309.676M702.32 921.44l26.023-14.194h27.375l26.361 21.291-26.361-21.291h-9.125l.676 35.148 19.939 14.87 12.166 32.106-12.842-31.768-20.277-15.208-.338-33.796-8.787-.338.338 35.148-31.092 46.638" stroke-linejoin="round" stroke="#000" stroke-linecap="round" stroke-width="11.4" fill="none"/><path d="M699.28 919.42l-16.22-14.87c8.873-20.833-16.821-27.281-19.939-22.981-8.682 11.971 6.014 28.848 20.277 22.643z" stroke-linejoin="round" stroke="#000" stroke-linecap="round" stroke-width="2.8"/><path d="M784.702 943.013a3.997 3.897 0 1 1-7.995 0 3.997 3.897 0 1 1 7.995 0z" stroke-linejoin="round" stroke="#000" stroke-linecap="round" stroke-width="1.9338469999999996"/><path d="M917.681 927.681a1.956 1.907 0 1 1-3.912 0 1.956 1.907 0 1 1 3.912 0z" stroke-linejoin="round" stroke="#000" stroke-linecap="round" stroke-width=".9464439999999998"/><path d="M908.81 987.01l12.166-26.023 18.926-18.25-1.69-40.893-35.148 12.504 32.444-12.504 23.32.676 31.767 24.333-32.106-24.333s-10.815-.338-10.815 1.014 2.028 38.189 2.028 38.189h-9.125l10.815.338 23.657 17.912 13.18 36.499" stroke-linejoin="round" stroke="#000" stroke-linecap="round" stroke-width="11.4" fill="none"/><path d="M898.67 913.16l-7.773-4.731c3.355-11.833-9.492-13.112-11.997-9.97-2.738 3.433 1.848 14.286 11.829 9.97z" stroke-linejoin="round" stroke="#000" stroke-linecap="round"/></svg>